<svg id="Capa_1" enable-background="new 0 0 512 512" height="512" viewBox="0 0 512 512" width="512" xmlns="http://www.w3.org/2000/svg"><g><circle cx="256" cy="256" fill="#ffd300" r="256"/><g><path d="m437.019 437.019c38.934-38.934 62.701-87.29 71.31-137.728l-146.971-146.971-270.72 207.36 151.96 151.96c69.908 3.643 141.024-21.223 194.421-74.621z" fill="#ff9e00"/></g><g><path d="m90.637 152.32v207.36h154.882l20.001-95.082-20.001-112.278z" fill="#fff"/><path d="m361.358 152.32h-115.839v207.36h115.839l80.005-108.48zm16.134 118.281c-8.284 0-15-6.716-15-15s6.716-15 15-15 15 6.716 15 15-6.716 15-15 15z" fill="#e3eaee"/><g><path d="m234.496 334.583 11.023 3.506 10-14.819-10-23.339" fill="#2681ff"/><path d="m214.746 270.603 9.544-30.003h21.229l10-10.086-10-9.592h-14.97l13.839-43.505-18.752-5.965-15.736 49.47h-36.904v19.678h30.644l-9.544 30.003h-36.822v19.677h30.563l-14.093 44.303 18.752 5.965 15.99-50.268h37.033l10-12.423-10-7.254z" fill="#2681ff"/><path d="m323.007 240.6v-19.678h-31.706l13.839-43.505-18.752-5.965-15.736 49.47h-25.133v19.678h18.873l-9.544 30.003h-9.329v19.677h3.07l-3.07 9.651v38.158l7.729 2.459 15.99-50.268h38.047v-19.677h-31.787l9.544-30.003z" fill="#005fe0"/></g></g></g></svg>