<svg id="Capa_1" enable-background="new 0 0 512 512" height="512" viewBox="0 0 512 512" width="512" xmlns="http://www.w3.org/2000/svg"><g><circle cx="256" cy="256" fill="#dd78ef" r="256"/><path d="m381.001 143.5-185.692 185.692 18.749 18.749-83.058 83.058 76.367 76.367c15.748 3.029 32.002 4.634 48.633 4.634 135.377 0 246.194-105.085 255.369-238.131z" fill="#d161e7"/><path d="m256 431h-125v-350h125l22.882 175z" fill="#fff"/><path d="m381 431h-125v-350h62.5l13.324 49.529 49.176 12.971z" fill="#e9edf5"/><path d="m381 143.5h-62.5v-62.5z" fill="#cdd2e1"/><path d="m171 168.331v113.926l85 61.412 13.16-87.669-13.16-87.669z" fill="#5179fa"/><path d="m341 168.331h-85v175.338l85-43.024z" fill="#1652bb"/><path d="m222 233.457-51 48.8v61.412h68 17l5.736-38.21-5.736-39.469z" fill="#a6d4fd"/><path d="m341 343.669v-43.024l-51-47.15-23.934 22.127-10.066-9.632v77.679h17z" fill="#6cb1f8"/><circle cx="307" cy="202.308" fill="#faba35" r="15"/></g></svg>